<svg xmlns="http://www.w3.org/2000/svg" width="520" height="140" viewBox="0 0 520 140" role="img" aria-label="보건리더스포럼 Health Leaders' Forum">
  <rect width="520" height="140" fill="#ffffff"/>
  <g transform="translate(18 15)">
    <path d="M63 10c24 0 43 14 52 34-21-21-49-20-70-3-10 8-16 20-17 34-10-14-9-34 2-50C40 16 51 10 63 10z" fill="#68b51b"/>
    <path d="M119 51c8 22 0 47-19 62 11-26 3-51-19-64-11-7-24-9-37-5 9-16 28-26 48-23 13 2 22 8 27 30z" fill="#d30a87"/>
    <path d="M90 116c-22 12-51 9-70-9 30 5 53-7 61-31 4-12 1-25-6-35 18 2 34 15 40 33 5 17 0 31-25 42z" fill="#0070bd"/>
    <path d="M20 104C3 84 1 57 14 36c0 28 17 49 41 54 13 2 26-2 36-10-5 18-21 32-41 35-13 2-24-1-30-11z" fill="#00a4c6"/>
    <path d="M31 25c17-17 45-22 67-11-30 2-50 18-53 43-2 13 3 26 12 35-18-3-33-16-39-34-4-13-2-24 13-33z" fill="#c9007f"/>
    <path d="M71 32c14 0 25 11 25 25 0 6-2 12-6 16h18v19H87v22H68V92H46V73h22V58H51c4-15 12-26 20-26z" fill="#ffffff"/>
    <circle cx="81" cy="54" r="9" fill="#f36c00"/>
    <path d="M61 47c8-12 26-11 34 1 8 13 1 30-14 34-16 4-31-10-27-26h19V44c-5 1-9 2-12 3z" fill="#0085c4"/>
    <path d="M84 78h22v14H84v22H70V92H48V78h22V56h14z" fill="#ffffff"/>
  </g>
  <g transform="translate(190 38)">
    <text x="0" y="35" font-family="'Malgun Gothic', 'Noto Sans KR', Arial, sans-serif" font-size="38" font-weight="800" fill="#4a4a4a">보건리더스포럼</text>
    <rect x="0" y="49" width="285" height="2" fill="#c01286"/>
    <text x="0" y="84" font-family="Arial, 'Noto Sans KR', sans-serif" font-size="28" font-weight="700" fill="#4a4a4a">Health Leaders’ Forum</text>
  </g>
</svg>
